<svg width="200" height="40" viewBox="0 0 200 40" fill="none" xmlns="http://www.w3.org/2000/svg"><g clip-path="url(#a)" fill="#000"><path d="M195.422 28.873c.741 0 1.408-.092 2.001-.279.594-.187 1.074-.442 1.445-.768.37-.327.652-.704.844-1.128.193-.425.288-.882.288-1.372 0-.519-.086-.97-.254-1.35-.272-.611-.848-1.128-1.726-1.55-.281-.133-1.105-.453-2.466-.967a14.231 14.231 0 0 1-.971-.392 5.644 5.644 0 0 1-.734-.403c-.242-.158-.422-.33-.536-.523-.116-.19-.171-.4-.171-.632 0-.43.199-.778.594-1.048.395-.27.851-.403 1.362-.403 1.236 0 2.365.43 3.387 1.288l1.099-1.624c-1.279-1.018-2.739-1.525-4.385-1.525-1.209 0-2.216.317-3.018.95-.802.632-1.202 1.418-1.202 2.362a3.287 3.287 0 0 0 .74 2.12c.214.249.499.48.857.7.358.22.701.397 1.028.54.328.14.732.288 1.209.445.067.024.171.056.306.098.272.098.474.172.606.217.132.044.303.107.517.187a4.766 4.766 0 0 1 .863.403c.15.083.257.16.328.229.067.071.14.154.217.246a.763.763 0 0 1 .153.303c.024.107.04.223.04.347 0 .472-.218.864-.652 1.179-.435.314-1.022.471-1.763.471-.845 0-1.57-.124-2.179-.37a5.78 5.78 0 0 1-1.72-1.105l-1.098 1.562c1.374 1.196 3.042 1.792 4.991 1.792zM181.21 26.99c-1.279 0-2.313-.41-3.106-1.235-.792-.822-1.187-1.867-1.187-3.131 0-1.357.41-2.452 1.233-3.286.823-.834 1.852-1.253 3.088-1.253.587 0 1.141.12 1.662.354.52.234.964.555 1.337.961.37.404.664.888.881 1.446.218.558.328 1.151.328 1.778 0 .635-.117 1.228-.346 1.777a4.136 4.136 0 0 1-.927 1.39c-.389.376-.839.67-1.356.881-.52.21-1.053.318-1.607.318zm4.153-16.972v8.168h-.037a5.193 5.193 0 0 0-1.208-1.089 5.365 5.365 0 0 0-1.475-.67 6.08 6.08 0 0 0-1.65-.223c-.884 0-1.717.163-2.491.49a5.875 5.875 0 0 0-1.98 1.338 6.22 6.22 0 0 0-1.291 2.039 6.802 6.802 0 0 0-.472 2.54c0 .927.163 1.782.487 2.568a5.757 5.757 0 0 0 1.322 1.983 6.013 6.013 0 0 0 1.986 1.258 6.628 6.628 0 0 0 2.454.454c.615 0 1.197-.086 1.745-.255a5.202 5.202 0 0 0 2.662-1.864h.037v1.959h2.032V10.017h-2.121zm-16.155 18.696h2.109V10.017h-2.109v18.696zm-3.234-12.51c-.86 0-1.647.198-2.36.602-.713.4-1.307.968-1.784 1.704h-.052V16.35h-2.121v12.36h2.121v-5.96c0-.829.153-1.562.459-2.206a3.59 3.59 0 0 1 1.343-1.526c.588-.37 1.28-.558 2.072-.558.257 0 .536.012.845.036v-2.268a3.47 3.47 0 0 0-.523-.026zm-16.131 10.774c-.86 0-1.631-.2-2.313-.594a4.135 4.135 0 0 1-1.579-1.606 4.539 4.539 0 0 1-.557-2.226c0-.819.183-1.567.55-2.243a4.108 4.108 0 0 1 1.573-1.612c.683-.398 1.457-.597 2.326-.597a4.53 4.53 0 0 1 2.231.558c.67.371 1.2.9 1.591 1.582.392.683.588 1.452.588 2.312 0 .852-.196 1.615-.588 2.295a4.107 4.107 0 0 1-1.597 1.573 4.54 4.54 0 0 1-2.225.558zm0 1.896c1.246 0 2.366-.264 3.36-.792a5.812 5.812 0 0 0 2.344-2.244c.567-.968.851-2.063.851-3.286 0-1.231-.284-2.333-.851-3.303a5.826 5.826 0 0 0-2.344-2.25c-.997-.528-2.117-.792-3.36-.792-.97 0-1.87.163-2.696.49-.826.326-1.524.771-2.09 1.338a6.066 6.066 0 0 0-1.328 2.021 6.566 6.566 0 0 0-.481 2.5c0 .884.16 1.712.481 2.486a6.106 6.106 0 0 0 1.328 2.01c.566.567 1.264 1.012 2.09 1.339.826.32 1.723.483 2.696.483zm-8.764-18.2l-4.588 14.443h-.052l-4.18-14.443h-2.466l-4.205 14.407h-.052l-4.575-14.404h-2.442l5.943 18.037h2.197l4.358-14.778h.052l4.293 14.778h2.198l5.942-18.037h-2.423v-.003zm-27.919 5.381c-.749 0-1.456.149-2.12.446a5.158 5.158 0 0 0-1.751 1.288h-.024v-1.5h-4.092V28.71h4.092v-6.233c0-.63.101-1.16.3-1.6.199-.439.474-.76.823-.967.349-.208.759-.309 1.227-.309.477 0 .857.077 1.145.229.284.151.508.424.664.819.159.392.235.923.235 1.594v6.47h4.092v-7.45c0-.95-.11-1.769-.334-2.454-.22-.686-.541-1.23-.964-1.624a3.845 3.845 0 0 0-1.438-.86c-.536-.179-1.157-.27-1.855-.27zm-9.752 0c-.469 0-.925.072-1.368.217a4.636 4.636 0 0 0-1.258.638c-.395.282-.756.63-1.08 1.042h-.052v-1.662h-4.092V28.71h4.092v-5.58c0-.546.107-1.03.327-1.451.217-.422.551-.754.998-.997.446-.244.985-.366 1.615-.366.392 0 .714.01.958.024v-4.274a.516.516 0 0 0-.14-.012zm-17.104 9.397c-.802 0-1.457-.27-1.968-.813-.51-.54-.768-1.247-.768-2.113 0-.876.26-1.588.78-2.131.52-.547 1.176-.82 1.968-.82.502 0 .961.128 1.374.377.413.253.738.603.97 1.054.236.451.352.956.352 1.52 0 .866-.26 1.573-.78 2.113-.517.543-1.16.813-1.928.813zm2.543-9.162v1.315h-.052c-.912-1.033-2.087-1.55-3.528-1.55a5.655 5.655 0 0 0-4.168 1.799c-.52.56-.93 1.246-1.228 2.05a7.491 7.491 0 0 0-.446 2.61c0 .95.15 1.825.447 2.627.3.8.713 1.478 1.239 2.033.53.552 1.169.988 1.919 1.303.75.314 1.56.472 2.426.472 1.543 0 2.727-.526 3.553-1.574h.052v1.339h3.887V16.289h-4.1zm-17.14 2.938c.4 0 .762.077 1.086.235.325.157.588.38.793.67.205.288.355.635.447 1.042l-4.793.024c.129-.63.413-1.113.857-1.457.444-.342.98-.514 1.61-.514zm6.34 3.161c0-1.214-.269-2.306-.81-3.274a5.73 5.73 0 0 0-2.268-2.255c-.97-.538-2.072-.805-3.299-.805-.93 0-1.796.16-2.601.484a6.187 6.187 0 0 0-2.063 1.327c-.572.56-1.019 1.243-1.35 2.045a6.785 6.785 0 0 0-.492 2.59c0 .945.171 1.817.511 2.622.34.804.805 1.487 1.393 2.045a6.287 6.287 0 0 0 2.114 1.309 7.322 7.322 0 0 0 2.638.472c1.27 0 2.396-.217 3.376-.65.979-.434 1.76-1.007 2.338-1.719L75.36 24.21c-.888 1-1.922 1.5-3.106 1.5-.76 0-1.417-.188-1.974-.565-.557-.377-.91-.902-1.056-1.582h8.719c.07-.483.104-.875.104-1.175zm-25.57 6.325H64.67v-3.781h-7.797V10.673h-4.398v18.04z"/><path fill-rule="evenodd" clip-rule="evenodd" d="M24.907 1.971L38.63 15.283c4.492 4.357.163 8.714.008 8.87l-.005.004L24.907 37.47c-4.575 4.437-9.15 0-9.15 0L2.032 24.157c-4.575-4.437 0-8.874 0-8.874L15.757 1.97c4.575-4.437 9.15 0 9.15 0zm.523 6.817a.12.12 0 0 1 .086-.032.108.108 0 0 0-.086.032zm9.472 12.84l1.762-1.71s.205-.198.003-.403l-1.655-1.606s-.012-.012-.03-.023l-.04-.04a1.874 1.874 0 0 0-.04-.04l-.196-.19s-1.97-1.912-3.942 0L28.5 19.811s-1.971 1.911 0 3.823l.196.19s1.97 1.911 3.941 0l1.34-1.3.925-.897zm-3.232-6.633a.125.125 0 0 0 .135-.024c.049-.045.049-.119-.003-.17a.026.026 0 0 0-.007-.006l-.841-.816-.083-.08-.413-.4-.009-.01-1.643-1.593s-.012-.012-.03-.024l-.008-.008a1.845 1.845 0 0 0-.072-.075l-.196-.19s-1.971-1.911-3.942 0l-6.402 6.21s-1.97 1.91 0 3.822l.196.19s1.97 1.912 3.942 0l5.474-5.313.928-.899c1.107-1.075 2.215-.938 2.974-.614zm-6.203-6.017a.125.125 0 0 0 .135-.023.118.118 0 0 0-.003-.17.096.096 0 0 0-.018-.011l-.01-.006a.114.114 0 0 0 .01.006c.006.002.01.005.015.008l-.845-.819-.083-.08-.413-.4-.009-.01-1.643-1.596s-.013-.012-.03-.024l-.008-.008a1.838 1.838 0 0 0-.073-.075l-.195-.19s-1.971-1.912-3.942 0l-6.402 6.21s-1.97 1.91 0 3.822l.196.19s1.97 1.911 3.942 0l5.474-5.313.927-.896c1.108-1.075 2.216-.938 2.975-.615zm-5.35 18.566L9.885 17.617s-1.97-1.911-3.941 0l-.196.19-.073.083a.123.123 0 0 1-.016.012.122.122 0 0 0-.015.012l-1.656 1.606s-.208.199 0 .4l1.763 1.71.924.896 11.687 11.327s1.968 1.911 3.939 0l.015-.015.18-.175.732-.71.018-.017 2.46-2.387.925-.896 1.763-1.71s.208-.199 0-.4l-1.656-1.606s-.012-.012-.03-.024a2.134 2.134 0 0 1-.04-.04l-.04-.04-.196-.19s-1.97-1.911-3.942 0l-1.961 1.903c-.205.192-.41-.003-.41-.003z"/></g><defs><clipPath id="a"><path fill="#fff" d="M0 0h200v39.437H0z"/></clipPath></defs></svg>